# xmcd
#
# Track frame offsets:
#	150
#	64654
#	89206
#	130402
#	206216
#	209100
#	209646
#	223238
#	223768
#	237829
#	238417
#	254762
#	255315
#	269922
#	270526
#	271212
#	272112
#	272806
#
# Disc length: 3718 seconds
#
# Revision: 1
# Processed by: cddbd v1.5.2PL0 Copyright (c) Steve Scherf et al.
# Submitted via: audiograbber 1.83.01
#
DISCID=4b0e8412
DTITLE=Stephen R Cheney - Radio presenters
DYEAR=1900
DGENRE=
TTITLE0=Interview Part 1
TTITLE1=Interview Part 2a
TTITLE2=Interview Part 2b
TTITLE3=Interview Part 3a
TTITLE4=Interview Part 3b
TTITLE5=Intro To Album Thinking Of You
TTITLE6=Thinking Of You
TTITLE7=Intro To Album I´ll Keep On Loving You
TTITLE8=I´ll Keep On Loving You
TTITLE9=Intro To Album Antiques And Old Wares
TTITLE10=Calling Out Her Name
TTITLE11=Intro To Album Holding On To A Dream
TTITLE12=Holding On To A Dream
TTITLE13=General Gretting From Stephen R Cheney
TTITLE14=Christmas Message
TTITLE15=Valentin Day Message
TTITLE16=Happy Birdday Message
TTITLE17=Poem Please Blow Your Horn
EXTD=
EXTT0=
EXTT1=
EXTT2=
EXTT3=
EXTT4=
EXTT5=
EXTT6=
EXTT7=
EXTT8=
EXTT9=
EXTT10=
EXTT11=
EXTT12=
EXTT13=
EXTT14=
EXTT15=
EXTT16=
EXTT17=
PLAYORDER=
